<svg xmlns="http://www.w3.org/2000/svg" height="800" width="1200" xml:space="preserve" y="0" x="0" id="Layer_1" version="1.1" viewBox="-162.6411 -66.0845 1409.5562 396.507"><style id="style9168" type="text/css">.st0{fill:#231f20}.st1{fill:#5190cc}</style><path id="path9170" d="M543.016 88.838h-18c-3.1 0-5.6 2.5-5.6 5.6v122.4c0 3.1 2.5 5.6 5.6 5.6h18c3.1 0 5.6-2.5 5.6-5.6v-122.4c0-3.1-2.5-5.6-5.6-5.6z" class="st0"/><path id="path9172" d="M737.016 86.038c-18.4 0-33.1 7.7-44.9 23.5l-.9 1.2-.7-1.3c-7.5-15.1-21.6-23.3-39.7-23.3-21.2 0-32.8 12.3-40.6 23l-1.7 2.3v-16.9c0-3.1-2.5-5.6-5.6-5.6h-18c-3.1 0-5.6 2.5-5.6 5.6v122.4c0 3.1 2.5 5.6 5.6 5.6h18c3.1 0 5.6-2.5 5.6-5.6v-69.9c0-21 11.7-34.5 29.9-34.5 18 0 28.4 12.3 28.4 33.8v70.7c0 3.1 2.5 5.6 5.6 5.6h18c3.1 0 5.6-2.5 5.6-5.6v-69.9c0-21.3 11.5-34.5 29.9-34.5 24.7 0 28.4 21.3 28.4 34v70.5c0 3.1 2.5 5.6 5.6 5.6h18c3.1 0 5.6-2.5 5.6-5.6v-79.9c0-32.7-16.9-51.2-46.5-51.2z" class="st0"/><path id="path9174" d="M834.216 88.938h-18c-3.1 0-5.6 2.5-5.6 5.6v122.4c0 3.1 2.5 5.6 5.6 5.6h18c3.1 0 5.6-2.5 5.6-5.6v-122.4c0-3.1-2.5-5.6-5.6-5.6z" class="st0"/><path id="path9176" d="M936.016 88.938h-30.9v-31.6c0-3.1-2.5-5.6-5.6-5.6h-18c-3.1 0-5.6 2.5-5.6 5.6v31.6h-11.5c-3.1 0-5.6 2.5-5.6 5.6v13.7c0 3.1 2.5 5.6 5.6 5.6h11.6v72.2c0 26.1 12.4 38.8 38.1 38.8 9.1 0 16.7-1.6 23.8-4.9 2-.9 3.2-2.9 3.2-5.1v-12c0-1.7-.8-3.4-2.2-4.4-1.4-1.1-3.2-1.4-4.9-.9-3.6 1-7.3 1.5-11.3 1.5-11.7 0-17.6-6-17.6-17.9v-67.4h30.9c3.1 0 5.6-2.5 5.6-5.6v-13.7c0-3-2.5-5.5-5.6-5.5z" class="st0"/><path id="path9178" d="M1083.316 91.338c-1-1.5-2.8-2.4-4.6-2.4h-18.2c-2.4 0-4.5 1.5-5.3 3.7l-34.5 98.6-37.5-98.7c-.8-2.2-2.9-3.6-5.2-3.6h-19.1c-1.9 0-3.6.9-4.6 2.5-1 1.5-1.2 3.5-.5 5.2l52.8 127.1-.2.3c-5.9 13.2-12.3 16-20.1 16-4.2 0-8.6-.9-13-2.6-2.8-1.1-5.9.2-7.1 2.9l-5.2 11.4c-.6 1.4-.7 2.9-.1 4.3.5 1.4 1.6 2.5 3 3.1 8.2 3.6 16.4 5.2 25.7 5.2 21.3 0 33.2-10.1 43.8-37.4l50.4-130.4c.8-1.7.5-3.6-.5-5.2z" class="st0"/><path id="path9180" d="M212.516 37.038h-18c-3.1 0-5.6 2.5-5.6 5.6v69.1l-1.7-2.2c-12-15.8-26.9-23.5-45.4-23.5-30.8 0-61.9 23.8-61.9 69.4v.5c0 45 31.9 69.4 61.9 69.4 18.6 0 33.5-8.2 45.4-25l1.7-2.4v19c0 3.1 2.5 5.6 5.6 5.6h18c3.1 0 5.6-2.5 5.6-5.6v-174.3c0-3.1-2.5-5.6-5.6-5.6zm-103.2 118.9v-.5c0-25.7 16.8-44.3 39.9-44.3 22.9 0 40.2 19 40.2 44.3v.5c0 24.8-17.6 44.3-40.2 44.3-22.7-.1-39.9-19.1-39.9-44.3z" class="st0"/><path id="path9182" d="M308.316 86.038c-40 0-71.4 30.7-71.4 69.9v.5c0 38.7 31.1 69.1 70.9 69.1 40.2 0 71.7-30.6 71.7-69.6v-.5c0-39-31.3-69.4-71.2-69.4zm0 114.1c-23.7 0-42.2-19.5-42.2-44.3v-.5c0-25.5 17.5-44 41.7-44 24.2 0 42.5 19.2 42.5 44.5v.5c0 25.4-17.6 43.8-42 43.8z" class="st0"/><path id="path9184" d="M456.116 154.038l40.7-56.4c1.2-1.7 1.4-3.9.4-5.8-1-1.9-2.9-3-5-3h-17c-1.8 0-3.6.9-4.6 2.4l-30.1 43.7-30.1-43.7c-1-1.5-2.8-2.4-4.6-2.4h-17.7c-2.1 0-4 1.2-5 3-1 1.9-.8 4.1.4 5.8l40.7 56.7-42.5 59.2c-1.2 1.7-1.4 3.9-.4 5.8 1 1.9 2.9 3 5 3h17c1.8 0 3.6-.9 4.6-2.4l31.9-46.5 32.2 46.5c1 1.5 2.8 2.4 4.6 2.4h17.8c2.1 0 4-1.2 5-3 1-1.9.8-4.1-.4-5.8z" class="st0"/><g transform="translate(-4.584 -5.862)" id="g9188"><path id="path9186" d="M46 129.9c-.7-7.8-.5-17.2 3.2-30.1 3.1-10.4 10.5-21.9 19.1-30 8.4-7.9 19.8-14.1 32.2-16.9 11.8-2.7 21.7-2.5 29.2-1.6 1.1 0 1.9.5 2.3 1 .8.8.9 2.6.5 3.1-.4.4-1.4.8-2.4.8-16.3 1-33.8 9.8-50.6 25.6-15.4 14.5-26.4 32.9-28.5 48.8-.1 1-.5 1.9-1 2.3-.5.4-2.4.3-3.1-.5-.4-.6-.8-1.4-.9-2.5z" class="st1"/></g><g transform="translate(-4.584 -5.862)" id="g9192"><path id="path9190" d="M5 111.3c-.9-10.3-.7-22.9 4.3-40.1 4.1-13.9 13.9-29.1 25.4-39.9C45.9 20.8 61 12.6 77.6 8.8c15.7-3.6 28.9-3.3 38.8-2.2 1.4 0 2.5.7 3.1 1.3 1 1.1 1.2 3.5.6 4.1-.5.5-1.8 1-3.1 1.1-21.7 1.4-45 13.1-67.3 34.1-20.6 19.4-35.2 43.8-38 65-.2 1.3-.7 2.5-1.3 3.1-.6.6-3.1.4-4.2-.7-.6-.6-1.1-1.7-1.2-3.3z" class="st1"/></g><path id="path9194" d="M534.016 48.038c-8 0-14.6 6.5-14.6 14.6 0 8 6.5 14.6 14.6 14.6 8 0 14.6-6.5 14.6-14.6 0-8-6.5-14.6-14.6-14.6z" class="st0"/><path id="path9196" d="M825.216 48.038c-8 0-14.6 6.5-14.6 14.6 0 8 6.5 14.6 14.6 14.6 8 0 14.6-6.5 14.6-14.6 0-8-6.6-14.6-14.6-14.6z" class="st0"/></svg>